<?xml  version="1.0" encoding="UTF-8"?>
<!DOCTYPE svg PUBLIC "-//W3C//DTD SVG 1.0//EN" "http://www.w3.org/TR/2001/REC-SVG-20010904/DTD/svg10.dtd" >
<svg xmlns="http://www.w3.org/2000/svg" >
<metadata>
<version>1.0</version>
<id><![CDATA[Proxima N W01SC X Cd Smbd]]></id>
<vendor>Monotype Imaging Inc.</vendor>
<credits>
<name>Fonts.com WebFonts</name>
<URL>http://webfonts.fonts.com</URL>
<role>Home of the Web fonts</role>
</credits>
<license>
<URL>http://webfonts.fonts.com/Legal</URL>
</license>
<copyright><![CDATA[Copyright (c) Mark Simonson, 2005. All rights reserved.]]></copyright>
<trademark><![CDATA[Proxima Nova is a trademark of Mark Simonson.]]></trademark>
<licensee>
<name></name>
</licensee>
</metadata>
<defs >
<font horiz-adv-x="368" id="5aeae952-948b-4be5-9858-3d1f4ec243a3">
<font-face font-family="" panose-1="2 0 5 6 3 0 0 2 0 4" ascent="769" descent="-231" units-per-em="1000" alphabetic="0">
</font-face>
<missing-glyph horiz-adv-x="0" />

<glyph unicode="&#xA;" />
<glyph unicode="&#xD;" horiz-adv-x="0" />
<glyph unicode=" " horiz-adv-x="165" />
<glyph unicode="!" horiz-adv-x="191" d="M133 180H59L43 550H149L133 180ZM161 54Q161 28 142 9T96 -10Q70 -10 51 9T31 54Q31 80 50 99T96 118Q122 118 141 99T161 54Z"  />
<glyph unicode="&quot;" horiz-adv-x="366" d="M82 399Q73 457 66 505Q63 525 60 545T55 581T52 609T50 623Q50 646 66 661T104 677Q126 677 142 662T158 623Q158 620 157 609T153 582T148 545T142 505Q135 457 126 399H82ZM240 399Q231 457 224 505Q221 525 218 545T213 581T210 609T208 623Q208 646 223 661T262 677Q285 677 300 662T316 623Q316 620 315 609T311 582T306 545T300 505Q293 457 284 399H240Z"  />
<glyph unicode="#" horiz-adv-x="381" d="M353 342H301L271 211H324L311 156H257L222 0H155L193 156H132L96 0H29L66 156H16L29 211H80L110 342H59L71 397H123L158 550H225L189 397H249L285 550H350L314 397H365L353 342ZM175 342L145 211H205L236 342H175Z"  />
<glyph unicode="$" horiz-adv-x="335" d="M137 -11Q101 -8 72 5T16 45L58 120Q77 97 101 85T152 72Q177 72 194 90T212 140Q212 165 199 184T167 221T124 255T82 295T49 347T36 417Q36 468 62 505T137 556V628H207V561Q236 558 259 548T306 518L268 443Q250 462 231 470T190 478Q167 478 152 462T136 417Q136 394 149 377T182 343T224 308T267 267T300 214T313 141Q313 86 285 47T207 -6V-74H137V-11Z"  />
<glyph unicode="%" horiz-adv-x="471" d="M230 424Q230 366 202 327T124 288Q75 288 47 327T18 424Q18 453 25 478T46 522T80 551T124 562Q148 562 168 552T201 522T222 478T230 424ZM454 126Q454 97 447 72T425 29T392 0T348 -11Q324 -11 304 -1T271 28T250 72T242 126Q242 155 249 180T270 224T304 253T348 264Q372 264 391 254T425 225T446 181T454 126ZM135 0H89L337 550H383L135 0ZM169 424Q169 462 158 486T124 510Q102 510 90 486T78 424Q78 387 90 364T124 340Q146 340 157 363T169 424ZM394 126Q394 164 382 187T348 211Q326 211 314 188T301 126Q301 90 313 66T348 41Q369 41 381 65T394 126Z"  />
<glyph unicode="&amp;" horiz-adv-x="369" d="M280 0Q273 10 267 19T255 38Q232 15 206 2T148 -11Q94 -11 59 29T24 142Q24 172 30 196T48 240T74 275T105 305Q76 374 76 423Q76 488 107 525T185 562Q205 562 223 554T256 530T280 494T289 446Q289 416 281 394T260 353T229 319T194 289Q201 275 208 261T224 233Q242 201 257 176Q265 201 272 227T284 278L352 249Q343 209 331 173T301 105Q317 82 334 57T373 0H280ZM163 56Q179 56 192 66T219 95Q206 116 195 135T173 174Q164 190 156 205T139 235Q125 217 117 196T109 146Q109 103 126 80T163 56ZM153 423Q153 391 166 355Q186 374 199 394T213 444Q213 471 205 485T185 499Q172 499 163 482T153 423Z"  />
<glyph unicode="&apos;" horiz-adv-x="208" d="M82 399Q73 457 66 505Q63 525 60 545T55 581T52 609T50 623Q50 646 66 661T104 677Q126 677 142 662T158 623Q158 620 157 609T153 582T148 545T142 505Q135 457 126 399H82Z"  />
<glyph unicode="(" horiz-adv-x="237" d="M149 -199Q98 -96 73 13T47 243Q47 364 72 473T149 685L217 656Q186 562 168 463T150 243Q150 123 168 24T217 -169L149 -199Z"  />
<glyph unicode=")" horiz-adv-x="237" d="M20 -169Q51 -76 69 23T87 243Q87 364 69 463T20 656L87 685Q138 582 164 473T190 243Q190 122 164 13T87 -199L20 -169Z"  />
<glyph unicode="*" horiz-adv-x="313" d="M131 381L136 494L41 433L15 478L115 529L15 580L41 625L136 564L131 677H182L177 564L272 625L298 580L197 529L298 478L272 433L177 494L182 381H131Z"  />
<glyph unicode="+" horiz-adv-x="381" d="M224 306V157H157V306H29V368H157V511H224V368H352V306H224Z"  />
<glyph unicode="&#x2c;" horiz-adv-x="241" d="M189 32Q189 -18 164 -60T100 -130L57 -95Q81 -80 101 -54T126 -1Q124 -2 120 -2T111 -3Q87 -3 71 13T55 55Q55 81 73 99T118 118Q147 118 168 96T189 32Z"  />
<glyph unicode="-" horiz-adv-x="239" d="M30 201V283H208V201H30Z"  />
<glyph unicode="." horiz-adv-x="239" d="M120 -10Q94 -10 75 9T55 54Q55 80 74 99T120 118Q146 118 165 99T184 54Q184 28 165 9T120 -10Z"  />
<glyph unicode="/" horiz-adv-x="216" d="M0 -20L147 687H216L69 -20H0Z"  />
<glyph unicode="0" horiz-adv-x="436" d="M401 275Q401 225 392 174T361 81T304 14T218 -12Q167 -12 132 14T76 81T46 173T36 275Q36 326 45 377T76 469T132 536T218 562Q269 562 304 536T360 469T391 377T401 275ZM293 275Q293 307 291 341T280 404T258 451T218 469Q194 469 179 451T156 405T146 342T143 275Q143 243 145 209T156 147T178 100T218 81Q243 81 257 99T280 146T290 209T293 275Z"  />
<glyph unicode="1" horiz-adv-x="324" d="M163 0V414L68 313L7 377L176 550H267V0H163Z"  />
<glyph unicode="2" horiz-adv-x="409" d="M46 0V88Q110 142 152 186T219 265T254 329T265 380Q265 418 247 443T196 469Q167 469 143 452T99 396L30 452Q60 505 101 533T203 562Q241 562 272 550T325 517T359 464T371 396Q371 370 363 338T333 269T277 187T186 92H363V0H46Z"  />
<glyph unicode="3" horiz-adv-x="418" d="M203 -129Q140 -129 94 -97T24 -19L97 41Q114 8 138 -14T198 -36Q244 -36 261 -6T279 72Q279 103 271 123T251 156T223 173T194 178Q183 178 173 178T155 176V271Q161 270 172 270T190 270Q228 270 250 294T272 366Q272 419 253 443T198 467Q166 467 142 448T102 397L32 452Q60 506 105 533T203 560Q240 560 271 550T326 517T362 461T375 381Q375 355 368 330T348 285T316 249T274 228Q297 223 317 209T351 173T374 124T383 65Q383 22 371 -13T336 -74T280 -114T203 -129Z"  />
<glyph unicode="4" horiz-adv-x="403" d="M337 45V-117H233V45H15V139L214 550H337V137H388V45H337ZM233 425L101 137H233V425Z"  />
<glyph unicode="5" horiz-adv-x="423" d="M208 -129Q142 -129 102 -100T32 -19L103 41Q120 4 143 -16T202 -36Q221 -36 236 -26T262 2T277 43T283 91Q283 218 210 218Q184 218 166 205T127 160L49 182V550H360V458H153V255Q167 279 192 294T247 309Q311 309 350 254T390 93Q390 47 378 7T342 -64T284 -111T208 -129Z"  />
<glyph unicode="6" horiz-adv-x="421" d="M223 -12Q169 -12 134 16T76 93T45 203T36 333Q36 403 48 466T85 575T148 649T240 677Q284 677 320 656T377 597L320 524Q307 553 289 568T243 584Q216 584 197 563T165 509T148 433T142 349V337Q156 373 184 398T251 424Q280 424 305 411T350 370T380 303T391 210Q391 165 380 125T347 54T294 6T223 -12ZM217 81Q236 81 248 92T269 120T280 160T284 206Q284 243 279 267T264 307T242 328T217 334Q202 334 191 327T170 307T154 279T142 248Q143 224 146 195T157 141T179 98T217 81Z"  />
<glyph unicode="7" horiz-adv-x="364" d="M74 -117L231 458H19V550H345V478L185 -117H74Z"  />
<glyph unicode="8" horiz-adv-x="419" d="M210 -12Q122 -12 78 35T33 164Q33 195 42 224T67 276T102 317T142 344Q124 352 106 367T73 403T50 450T41 508Q41 551 55 583T92 636T146 667T210 677Q243 677 273 667T327 636T365 583T379 508Q379 477 370 451T347 403T314 367T278 344Q297 335 316 318T352 277T377 225T387 165Q387 82 342 35T210 -12ZM210 379Q214 381 224 388T246 409T266 443T275 490Q275 534 259 559T210 584Q177 584 161 559T144 490Q144 463 153 443T173 410T195 389T210 379ZM210 81Q240 81 261 105T282 179Q282 209 273 232T251 271T227 296T210 306Q204 305 192 296T168 271T147 232T138 179Q138 130 158 106T210 81Z"  />
<glyph unicode="9" horiz-adv-x="421" d="M180 -128Q136 -128 101 -107T44 -48L101 25Q114 -4 132 -19T178 -35Q204 -35 223 -15T254 39T273 114T279 200V212Q265 176 237 151T170 125Q141 125 116 138T71 179T41 246T30 339Q30 384 41 424T74 495T127 543T198 561Q251 561 287 533T344 456T375 346T385 216Q385 145 373 83T336 -26T272 -100T180 -128ZM203 215Q218 215 230 222T251 242T266 270T278 301Q278 325 275 354T265 408T243 451T205 468Q186 468 173 457T152 429T140 389T136 343Q136 306 141 282T156 242T178 221T203 215Z"  />
<glyph unicode=":" horiz-adv-x="238" d="M120 362Q94 362 75 381T55 426Q55 452 74 471T120 490Q146 490 165 471T184 426Q184 400 165 381T120 362ZM120 -10Q94 -10 75 9T55 54Q55 80 74 99T120 118Q146 118 165 99T184 54Q184 28 165 9T120 -10Z"  />
<glyph unicode=";" horiz-adv-x="239" d="M120 362Q94 362 75 381T55 426Q55 452 74 471T120 490Q146 490 165 471T184 426Q184 400 165 381T120 362ZM189 35Q189 -15 164 -57T100 -128L57 -92Q69 -85 80 -74T101 -51T117 -25T126 1Q124 1 120 0T111 -1Q87 -1 71 15T55 58Q55 84 73 102T118 121Q147 121 168 99T189 35Z"  />
<glyph unicode="&lt;" horiz-adv-x="381" d="M29 301V368L352 511V438L103 334L352 232V158L29 301Z"  />
<glyph unicode="=" horiz-adv-x="381" d="M29 399V461H352V399H29ZM29 207V269H352V207H29Z"  />
<glyph unicode="&gt;" horiz-adv-x="381" d="M29 158V232L278 334L29 438V511L352 368V301L29 158Z"  />
<glyph unicode="?" horiz-adv-x="281" d="M267 443Q267 403 252 377T217 329T183 288T167 239Q167 229 171 219T183 201L110 171Q89 199 89 238Q89 271 101 293T129 335T157 373T170 421Q170 442 159 461T122 481Q93 481 73 455L27 510Q49 536 80 549T145 562Q203 562 235 528T267 443ZM208 54Q208 28 189 9T143 -10Q117 -10 98 9T79 54Q79 80 98 99T143 118Q169 118 188 99T208 54Z"  />
<glyph unicode="@" horiz-adv-x="620" d="M267 -70Q213 -70 170 -50T97 7T51 96T35 215Q35 296 62 372T135 508T244 603T376 639Q422 639 460 623T526 575T569 498T585 396Q585 331 572 275T537 176T485 110T425 85Q392 85 371 103T345 153L344 161Q325 132 299 109T233 85Q216 85 200 91T170 111T148 150T140 211Q140 262 153 313T191 405T250 473T327 499Q357 499 374 480T399 431L410 483H494L438 220Q437 216 436 208T435 195Q435 171 441 161T464 151Q474 151 488 167T516 214T538 291T547 395Q547 497 500 550T374 603Q312 603 258 570T162 481T97 357T73 216Q73 161 86 115T124 36T186 -16T272 -35Q315 -35 349 -20T415 21L433 -7Q395 -37 355 -53T267 -70ZM272 153Q301 153 320 176T354 223L386 371Q381 393 371 411T339 430Q312 430 292 409T257 357T235 290T228 224Q228 191 238 172T272 153Z"  />
<glyph unicode="A" horiz-adv-x="398" d="M288 0L265 136H133L110 0H3L139 667H259L395 0H288ZM199 548L145 228H253L199 548Z"  />
<glyph unicode="B" horiz-adv-x="431" d="M57 0V667H233Q272 667 301 654T348 618T376 564T386 497Q386 434 361 396T293 344Q316 340 334 326T366 289T387 238T395 180Q395 141 386 108T359 51T311 14T240 0H57ZM208 386Q248 386 263 412T279 480Q279 522 264 548T208 575H161V386H208ZM212 92Q252 92 270 118T288 193Q288 235 270 264T212 294H161V92H212Z"  />
<glyph unicode="C" horiz-adv-x="412" d="M230 -12Q179 -12 142 14T82 87T47 196T36 333Q36 407 47 470T81 579T142 652T230 678Q267 678 292 665T336 631T365 584T385 533L301 502Q290 540 275 562T230 585Q206 585 190 566T163 514T148 434T143 333Q143 279 147 233T162 153T189 100T230 81Q263 81 278 109T302 180L387 149Q380 121 369 93T340 41T295 3T230 -12Z"  />
<glyph unicode="D" horiz-adv-x="455" d="M57 0V667H206Q263 667 303 642T369 572T407 466T419 333Q419 261 407 200T370 94T304 25T207 0H57ZM206 92Q261 92 286 157T312 333Q312 447 287 511T206 575H161V92H206Z"  />
<glyph unicode="E" horiz-adv-x="367" d="M57 0V667H330V575H161V386H323V294H161V92H330V0H57Z"  />
<glyph unicode="F" horiz-adv-x="365" d="M57 0V667H330V575H161V386H323V294H161V0H57Z"  />
<glyph unicode="G" horiz-adv-x="435" d="M230 -12Q180 -12 144 13T83 84T48 193T36 333Q36 410 47 473T83 582T143 653T230 678Q263 678 288 667T332 635T364 589T385 533L301 502Q291 538 276 561T230 585Q187 585 165 521T143 333Q143 211 165 146T230 81Q273 81 295 116V260H214V352H388V72Q358 31 320 10T230 -12Z"  />
<glyph unicode="H" horiz-adv-x="463" d="M302 0V297H161V0H57V667H161V389H302V667H407V0H302Z"  />
<glyph unicode="I" horiz-adv-x="218" d="M57 0V667H161V0H57Z"  />
<glyph unicode="J" horiz-adv-x="337" d="M115 -12Q86 -12 59 -3T7 28L39 113Q53 96 70 89T104 81Q138 81 157 100T177 161V667H281V156Q281 68 235 28T115 -12Z"  />
<glyph unicode="K" horiz-adv-x="448" d="M323 0L204 269L161 184V0H57V667H161V342L314 667H429L264 352L442 0H323Z"  />
<glyph unicode="L" horiz-adv-x="351" d="M57 0V667H161V92H330V0H57Z"  />
<glyph unicode="M" horiz-adv-x="591" d="M432 0V465L314 0H277L161 465V0H57V667H192L296 255L402 667H535V0H432Z"  />
<glyph unicode="N" horiz-adv-x="463" d="M308 0L161 426V0H57V667H161L302 252V667H407V0H308Z"  />
<glyph unicode="O" horiz-adv-x="459" d="M229 -12Q177 -12 141 15T81 88T47 198T36 333Q36 406 46 469T80 578T140 651T229 678Q281 678 318 652T378 579T412 469T423 333Q423 261 412 198T378 89T318 15T229 -12ZM229 81Q253 81 270 101T297 155T311 235T316 333Q316 386 312 432T297 512T270 565T229 585Q205 585 189 566T162 512T148 432T143 333Q143 281 147 235T162 155T188 101T229 81Z"  />
<glyph unicode="P" horiz-adv-x="418" d="M57 0V667H218Q264 667 297 651T351 606T383 540T394 461Q394 420 384 383T352 317T297 272T218 255H161V0H57ZM208 347Q247 347 267 378T287 461Q287 512 267 543T208 575H161V347H208Z"  />
<glyph unicode="Q" horiz-adv-x="459" d="M229 -12Q177 -12 141 15T81 88T47 198T36 333Q36 406 46 469T80 578T140 651T229 678Q281 678 318 652T378 579T412 469T423 333Q423 235 404 157T340 33L355 -6L281 -35L270 -7Q260 -9 250 -10T229 -12ZM236 81L185 215L259 244L295 149Q306 184 311 231T316 333Q316 386 312 432T297 512T270 565T229 585Q205 585 189 566T162 512T148 432T143 333Q143 281 147 235T162 155T188 101T229 81H236Z"  />
<glyph unicode="R" horiz-adv-x="438" d="M288 0L209 255H161V0H57V667H223Q260 667 291 653T345 612T381 548T394 464Q394 421 386 390T364 336T336 301T305 280L400 0H288ZM208 347Q247 347 267 378T287 461Q287 512 267 543T208 575H161V347H208Z"  />
<glyph unicode="S" horiz-adv-x="378" d="M175 -12Q75 -12 16 52L63 134Q83 108 111 95T169 81Q201 81 222 105T244 167Q244 200 229 224T190 269T139 310T89 356T50 417T34 501Q34 538 46 570T80 626T134 664T206 678Q245 678 279 665T340 627L298 547Q261 585 209 585Q180 585 160 564T140 507Q140 478 155 456T194 414T245 372T295 323T334 259T350 173Q350 133 338 99T302 41T247 2T175 -12Z"  />
<glyph unicode="T" horiz-adv-x="347" d="M121 0V575H18V667H329V575H225V0H121Z"  />
<glyph unicode="U" horiz-adv-x="464" d="M232 -12Q197 -12 165 -1T109 35T71 96T57 184V667H161V179Q161 124 180 102T232 80Q264 80 283 102T303 179V667H407V184Q407 133 393 96T355 35T299 0T232 -12Z"  />
<glyph unicode="V" horiz-adv-x="398" d="M139 0L3 667H110L199 135L288 667H395L259 0H139Z"  />
<glyph unicode="W" horiz-adv-x="587" d="M355 0L293 466L232 0H125L14 667H121L183 184L251 667H336L405 184L466 667H573L462 0H355Z"  />
<glyph unicode="X" horiz-adv-x="408" d="M292 0L204 246L116 0H1L144 340L9 667H124L204 432L284 667H400L264 340L408 0H292Z"  />
<glyph unicode="Y" horiz-adv-x="405" d="M151 0V279L-3 667H109L203 382L298 667H408L255 279V0H151Z"  />
<glyph unicode="Z" horiz-adv-x="360" d="M31 0V89L206 575H31V667H323V582L145 92H330V0H31Z"  />
<glyph unicode="[" horiz-adv-x="195" d="M35 -190V678H177V612H105V-124H177V-190H35Z"  />
<glyph unicode="\" horiz-adv-x="216" d="M1 687H69L216 -20H148L1 687Z"  />
<glyph unicode="]" horiz-adv-x="195" d="M17 -190V-124H90V612H17V678H160V-190H17Z"  />
<glyph unicode="^" horiz-adv-x="334" d="M245 333L167 590L89 333H19L132 667H202L315 333H245Z"  />
<glyph unicode="_" horiz-adv-x="279" d="M-3 -106V-40H282V-106H-3Z"  />
<glyph unicode="`" horiz-adv-x="164" d="M103 556L0 700H85L164 556H103Z"  />
<glyph unicode="a" horiz-adv-x="347" d="M229 550L344 0H244L226 110H121L103 0H2L118 550H229ZM173 437L132 195H214L173 437Z"  />
<glyph unicode="b" horiz-adv-x="369" d="M50 0V550H200Q269 550 302 510T335 409Q335 359 315 328T259 285Q297 274 319 236T342 149Q342 117 334 90T310 42T267 11T205 0H50ZM185 85Q216 85 229 105T243 161Q243 192 230 215T185 238H148V85H185ZM182 324Q212 324 223 344T235 394Q235 422 224 443T182 465H148V324H182Z"  />
<glyph unicode="c" horiz-adv-x="371" d="M208 -12Q161 -12 128 10T74 70T43 161T33 275Q33 336 43 388T74 479T128 540T208 562Q240 562 263 552T302 523T329 482T348 435L269 409Q258 441 245 458T208 476Q187 476 173 461T149 418T137 355T133 275Q133 233 136 196T149 132T172 90T208 74Q232 74 246 93T269 145L348 120Q340 95 330 72T303 30T264 0T208 -12Z"  />
<glyph unicode="d" horiz-adv-x="409" d="M50 0V550H186Q235 550 271 529T330 471T365 384T376 274Q376 215 365 165T331 78T272 21T187 0H50ZM186 85Q232 85 254 136T277 274Q277 364 254 414T186 465H148V85H186Z"  />
<glyph unicode="e" horiz-adv-x="326" d="M50 0V550H293V465H148V324H287V238H148V85H293V0H50Z"  />
<glyph unicode="f" horiz-adv-x="324" d="M50 0V550H293V465H148V324H287V238H148V0H50Z"  />
<glyph unicode="g" horiz-adv-x="391" d="M207 -12Q162 -12 129 9T75 68T43 159T33 275Q33 338 43 391T74 482T129 541T207 562Q236 562 258 552T298 525T327 485T347 435L269 409Q260 438 247 457T207 476Q168 476 151 424T133 275Q133 180 150 127T210 74Q246 74 263 101V213H200V293H351V59Q321 23 288 6T207 -12Z"  />
<glyph unicode="h" horiz-adv-x="415" d="M267 0V240H148V0H50V550H148V325H267V550H364V0H267Z"  />
<glyph unicode="i" horiz-adv-x="198" d="M50 0V550H148V0H50Z"  />
<glyph unicode="j" horiz-adv-x="298" d="M101 -12Q75 -12 50 -4T5 24L33 102Q45 88 60 81T90 74Q118 74 134 89T150 139V550H247V128Q247 54 207 21T101 -12Z"  />
<glyph unicode="k" horiz-adv-x="397" d="M280 0L179 214L148 152V0H50V550H148V300L273 550H380L237 290L391 0H280Z"  />
<glyph unicode="l" horiz-adv-x="312" d="M50 0V550H148V85H293V0H50Z"  />
<glyph unicode="m" horiz-adv-x="519" d="M373 0V364L279 0H240L148 364V0H50V550H173L260 211L348 550H469V0H373Z"  />
<glyph unicode="n" horiz-adv-x="409" d="M264 0L148 350V0H50V550H151L262 212V550H359V0H264Z"  />
<glyph unicode="o" horiz-adv-x="416" d="M207 -12Q160 -12 127 10T73 71T43 162T33 275Q33 335 42 387T73 478T127 539T207 562Q254 562 287 540T341 479T372 388T382 275Q382 215 372 163T341 72T287 11T207 -12ZM207 74Q229 74 243 90T266 133T278 197T282 275Q282 316 279 352T267 416T244 460T207 476Q185 476 171 460T149 417T137 353T133 275Q133 234 136 198T148 134T171 90T207 74Z"  />
<glyph unicode="p" horiz-adv-x="363" d="M50 0V550H192Q231 550 259 536T307 499T335 444T344 378Q344 343 335 312T307 257T260 219T192 205H148V0H50ZM181 290Q213 290 228 315T244 377Q244 415 229 440T181 465H148V290H181Z"  />
<glyph unicode="q" horiz-adv-x="416" d="M207 -12Q160 -12 127 10T73 71T43 162T33 275Q33 335 42 387T73 478T127 539T207 562Q254 562 287 540T341 479T372 388T382 275Q382 194 364 129T307 26L320 -7L251 -34L241 -8Q226 -12 207 -12ZM210 74L173 172L242 199L267 133Q275 161 278 197T282 275Q282 316 279 352T267 416T244 460T207 476Q185 476 171 460T149 417T137 353T133 275Q133 234 136 198T148 134T171 90T207 74H210Z"  />
<glyph unicode="r" horiz-adv-x="380" d="M245 0L182 205H148V0H50V550H193Q230 550 258 537T305 501T334 446T344 379Q344 313 320 276T269 226L351 0H245ZM181 290Q213 290 228 315T244 378Q244 415 229 440T181 465H148V290H181Z"  />
<glyph unicode="s" horiz-adv-x="335" d="M160 -12Q115 -12 82 1T16 45L58 120Q77 97 101 85T152 72Q177 72 194 90T212 140Q212 165 199 184T167 221T124 255T82 295T49 347T36 417Q36 448 46 474T75 520T122 551T184 562Q222 562 251 552T306 518L268 443Q250 462 231 470T190 478Q167 478 152 462T136 417Q136 394 149 377T182 343T224 308T267 267T300 214T313 141Q313 108 302 80T271 31T223 0T160 -12Z"  />
<glyph unicode="t" horiz-adv-x="294" d="M98 0V465H15V550H279V465H196V0H98Z"  />
<glyph unicode="u" horiz-adv-x="414" d="M207 -12Q133 -12 92 38T50 200V550H148V163Q148 74 207 74Q266 74 266 163V550H364V200Q364 89 323 39T207 -12Z"  />
<glyph unicode="v" horiz-adv-x="347" d="M118 0L2 550H103L173 137L244 550H344L229 0H118Z"  />
<glyph unicode="w" horiz-adv-x="514" d="M310 0L257 356L204 0H105L6 550H106L159 181L218 550H297L356 180L409 550H509L409 0H310Z"  />
<glyph unicode="x" horiz-adv-x="360" d="M253 0L180 198L107 0H0L120 280L6 550H113L180 362L246 550H353L240 281L360 0H253Z"  />
<glyph unicode="y" horiz-adv-x="358" d="M130 0V230L-2 550H101L179 328L257 550H360L228 230V0H130Z"  />
<glyph unicode="z" horiz-adv-x="309" d="M25 0V75L168 465H25V550H278V477L135 85H284V0H25Z"  />
<glyph unicode="{" horiz-adv-x="212" d="M166 -190Q145 -190 126 -182T91 -159T66 -124T57 -78V147Q57 175 44 195T5 215V273Q31 273 44 293T57 341V565Q57 590 66 611T90 647T125 670T166 678H195V612H166Q150 612 139 599T127 565V333Q127 301 117 278T82 244Q107 233 117 210T127 155V-78Q127 -98 138 -111T166 -125H195V-190H166Z"  />
<glyph unicode="|" horiz-adv-x="179" d="M57 -20V687H122V-20H57Z"  />
<glyph unicode="}" horiz-adv-x="212" d="M17 -125H46Q63 -125 74 -112T85 -78V155Q85 187 95 210T130 244Q105 255 95 278T85 333V565Q85 586 74 599T46 612H17V678H46Q67 678 86 670T121 647T146 611T155 565V341Q155 313 168 293T207 273V215Q181 215 168 195T155 147V-78Q155 -103 146 -123T122 -159T87 -182T46 -190H17V-125Z"  />
<glyph unicode="~" horiz-adv-x="407" d="M380 661Q378 624 374 582T357 503T323 443T264 419Q239 419 224 432T199 467T184 511T174 556T162 590T143 604Q119 604 110 561T94 418L27 425Q29 462 33 504T50 582T85 642T143 666Q168 666 184 652T209 618T223 573T234 529T245 494T264 480Q276 480 283 490T296 522T305 580T313 667L380 661Z"  />
<glyph unicode="&#xA0;" horiz-adv-x="165" />
<glyph unicode="&#xA1;" horiz-adv-x="191" d="M58 370H132L148 0H42L58 370ZM30 496Q30 522 49 541T95 560Q121 560 140 541T160 496Q160 470 141 451T95 432Q69 432 50 451T30 496Z"  />
<glyph unicode="&#xA2;" horiz-adv-x="371" d="M173 -89V-8Q136 0 110 24T66 86T41 172T33 275Q33 330 41 378T66 463T109 525T173 558V621H242V558Q264 552 281 540T310 512T332 476T348 435L269 409Q262 429 255 443T238 465V84Q258 101 269 145L348 120Q342 99 333 78T312 40T282 10T242 -8V-89H173ZM133 275Q133 207 142 156T177 85V465Q152 445 143 394T133 275Z"  />
<glyph unicode="&#xA3;" horiz-adv-x="335" d="M23 284H64Q53 311 45 341T37 407Q37 442 49 470T81 519T127 550T182 561Q230 561 264 535T310 461L236 433Q221 490 186 490Q164 490 149 467T133 406Q133 372 141 343T161 284H227V228H178Q180 217 181 206T183 184Q183 154 170 127T144 84Q153 90 164 90Q177 90 186 87T204 80T220 73T240 69Q257 69 271 76T295 95L325 28Q311 11 287 1T233 -9Q212 -9 199 -5T175 6T155 16T132 21Q116 21 99 13T64 -7L35 54Q64 73 82 101T100 163Q100 180 96 195T87 228H23V284Z"  />
<glyph unicode="&#xA4;" horiz-adv-x="506" d="M253 222Q310 222 341 262T372 365Q372 395 364 421T341 467T304 498T253 509Q224 509 202 498T165 468T141 422T133 365Q133 334 141 308T164 263T202 233T253 222ZM19 168L88 239Q50 294 50 365Q50 436 88 489L19 560L64 603L131 534Q155 552 185 563T253 574Q289 574 320 563T375 534L442 603L487 560L418 489Q455 435 455 365Q455 330 445 298T417 240L487 168L442 125L374 194Q325 157 253 157Q181 157 132 194L64 125L19 168Z"  />
<glyph unicode="&#xA5;" horiz-adv-x="358" d="M130 0V111H20V166H130V229H20V284H107L-2 550H101L179 328L257 550H360L250 284H338V229H228V166H338V111H228V0H130Z"  />
<glyph unicode="&#xA6;" horiz-adv-x="179" d="M57 -20V296H122V-20H57ZM57 371V687H122V371H57Z"  />
<glyph unicode="&#xA7;" horiz-adv-x="331" d="M308 308Q308 273 291 241T237 189Q275 161 291 130T308 57Q308 28 297 3T267 -40T221 -70T162 -81Q70 -81 16 -19L57 44Q63 36 73 27T95 9T123 -4T154 -10Q185 -10 202 9T219 55Q219 80 205 97T171 129T126 157T81 190T46 235T32 301Q32 339 53 371T114 414Q67 446 50 480T32 552Q32 580 42 603T71 642T114 668T167 677Q218 677 249 662T304 620L264 563Q241 589 221 599T176 609Q150 609 135 593T120 552Q120 529 134 513T169 482T214 454T259 421T294 374T308 308ZM225 288Q225 326 208 348T174 382Q139 374 127 355T115 316Q115 288 129 266T180 220Q204 232 214 250T225 288Z"  />
<glyph unicode="&#xA8;" horiz-adv-x="272" d="M267 607Q267 584 251 569T213 553Q190 553 175 568T159 607Q159 629 174 644T213 660Q235 660 251 645T267 607ZM113 607Q113 584 98 569T59 553Q37 553 21 568T5 607Q5 629 21 644T59 660Q82 660 97 645T113 607Z"  />
<glyph unicode="&#xA9;" horiz-adv-x="778" d="M734 334Q734 263 707 200T633 90T523 16T389 -11Q318 -11 255 16T145 90T71 200T44 334Q44 405 71 468T145 578T255 652T389 679Q460 679 523 652T633 578T707 468T734 334ZM701 334Q701 398 677 455T610 554T510 621T389 646Q325 646 268 622T169 555T102 455T77 334Q77 270 101 213T168 114T268 47T389 22Q453 22 510 46T609 113T676 213T701 334ZM540 189Q513 157 477 140T393 122Q349 122 311 138T245 182T201 250T184 334Q184 380 200 419T245 487T311 531T393 547Q440 547 476 530T539 481L512 454Q492 480 460 496T393 512Q359 512 329 499T275 463T238 407T224 334Q224 296 237 264T274 208T328 171T393 157Q429 157 460 173T512 215L540 189Z"  />
<glyph unicode="&#xAA;" horiz-adv-x="292" d="M181 326V358Q170 340 152 329T111 318Q73 318 48 345T22 421Q22 471 47 497T111 524Q134 524 152 514T181 487V532Q181 593 129 593Q114 593 97 585T62 557L35 604Q58 627 87 637T143 648Q195 648 223 621T251 535V326H181ZM135 365Q149 365 161 372T181 398V448Q173 467 161 474T135 482Q114 482 103 465T92 423Q92 398 103 382T135 365Z"  />
<glyph unicode="&#xAB;" horiz-adv-x="359" d="M254 63L164 243L254 420H329L239 243L329 63H254ZM120 63L30 243L120 420H195L105 243L195 63H120Z"  />
<glyph unicode="&#xAC;" horiz-adv-x="381" d="M352 207H288V399H29V461H352V207Z"  />
<glyph unicode="&#xAD;" horiz-adv-x="239" d="M30 201V283H208V201H30Z"  />
<glyph unicode="&#xAE;" horiz-adv-x="494" d="M459 465Q459 421 443 383T398 315T330 270T247 253Q203 253 165 269T97 315T52 382T35 465Q35 509 51 548T97 615T164 660T247 677Q291 677 330 661T397 616T442 548T459 465ZM429 465Q429 503 415 536T376 594T318 633T247 647Q209 647 176 633T118 595T79 537T65 465Q65 427 79 394T118 337T176 298T247 283Q285 283 318 297T376 336T415 394T429 465ZM305 343L242 439H199V343H166V586H265Q296 586 319 566T343 512Q343 492 336 478T318 456T297 444T281 440L346 343H305ZM309 512Q309 532 295 544T265 557H199V469H265Q281 469 295 481T309 512Z"  />
<glyph unicode="&#xAF;" horiz-adv-x="254" d="M0 591V648H254V591H0Z"  />
<glyph unicode="&#xB0;" horiz-adv-x="298" d="M275 550Q275 524 265 501T238 461T197 434T148 424Q122 424 99 434T59 461T32 501T22 550Q22 576 32 599T59 639T99 667T148 677Q174 677 197 667T237 640T265 599T275 550ZM220 550Q220 579 199 600T148 622Q119 622 99 601T78 550Q78 521 98 501T148 480Q177 480 198 500T220 550Z"  />
<glyph unicode="&#xB1;" horiz-adv-x="381" d="M224 306V157H157V306H29V368H157V511H224V368H352V306H224ZM29 35V96H352V35H29Z"  />
<glyph unicode="&#xB2;" horiz-adv-x="281" d="M29 421V475Q79 534 110 572T158 635T181 678T187 714Q187 738 173 753T136 768Q115 768 97 755T65 719L20 761Q41 793 70 810T140 827Q194 827 226 798T259 716Q259 694 252 673T229 624T186 563T120 480H261V421H29Z"  />
<glyph unicode="&#xB3;" horiz-adv-x="281" d="M262 531Q262 478 229 446T139 414Q96 414 65 432T17 479L65 523Q77 500 95 487T136 473Q165 473 177 490T190 535Q190 553 185 565T171 584T153 594T132 597Q124 597 117 597T104 596V655Q108 654 115 654T129 654Q155 654 170 667T185 710Q185 740 172 754T135 768Q114 768 97 756T67 724L21 763Q41 794 71 810T139 827Q190 827 223 801T256 719Q256 687 237 661T189 628Q218 623 240 596T262 531Z"  />
<glyph unicode="&#xB4;" horiz-adv-x="164" d="M61 556H0L79 700H164L61 556Z"  />
<glyph unicode="&#xB5;" horiz-adv-x="402" d="M50 -184V483H144V126Q144 70 185 70Q209 70 228 91T258 139V483H352V0H258V63Q243 33 213 11T147 -12H144V-184H50Z"  />
<glyph unicode="&#xB6;" horiz-adv-x="449" d="M336 -100V616H250V-100H199V323Q163 323 132 336T78 373T41 428T27 495Q27 531 40 562T77 616T132 653T199 667H387V-100H336Z"  />
<glyph unicode="&#xB7;" horiz-adv-x="239" d="M184 245Q184 219 165 200T119 180Q93 180 74 199T55 245Q55 271 74 290T119 309Q146 309 165 290T184 245Z"  />
<glyph unicode="&#xB8;" horiz-adv-x="175" d="M82 -193Q57 -193 36 -184T0 -162L20 -121Q35 -134 49 -141T80 -148Q98 -148 111 -138T124 -110Q124 -96 117 -88T98 -80Q82 -80 71 -93L34 -72L65 11H116L90 -54Q97 -49 103 -47T119 -44Q142 -44 158 -62T175 -111Q175 -148 149 -170T82 -193Z"  />
<glyph unicode="&#xB9;" horiz-adv-x="232" d="M111 421V727L53 667L12 710L121 821H184V421H111Z"  />
<glyph unicode="&#xBA;" horiz-adv-x="300" d="M150 318Q119 318 96 331T58 368T35 420T27 483Q27 516 34 545T57 598T96 634T150 648Q181 648 204 635T243 598T265 546T273 483Q273 450 266 421T243 368T205 332T150 318ZM150 375Q165 375 174 383T190 407T198 441T200 483Q200 505 198 524T190 558T175 581T150 590Q121 590 110 559T99 483Q99 461 101 442T110 407T125 384T150 375Z"  />
<glyph unicode="&#xBB;" horiz-adv-x="359" d="M105 63H30L120 243L30 420H105L195 243L105 63ZM239 63H164L254 243L164 420H239L329 243L239 63Z"  />
<glyph unicode="&#xBC;" horiz-adv-x="617" d="M192 0H146L422 667H469L192 0ZM568 95V0H496V95H351V153L480 400H568V153H603V95H568ZM496 319L413 153H496V319ZM111 267V573L53 513L12 556L121 667H184V267H111Z"  />
<glyph unicode="&#xBD;" horiz-adv-x="651" d="M192 0H146L422 667H469L192 0ZM399 0V54Q449 113 480 151T528 214T551 257T557 293Q557 317 543 332T506 347Q485 347 467 334T435 298L390 340Q411 372 440 389T510 406Q564 406 596 377T629 295Q629 273 622 252T599 203T556 142T490 59H631V0H399ZM111 267V573L53 513L12 556L121 667H184V267H111Z"  />
<glyph unicode="&#xBE;" horiz-adv-x="653" d="M228 0H182L458 667H505L228 0ZM604 95V0H532V95H387V153L516 400H604V153H639V95H604ZM532 319L449 153H532V319ZM262 377Q262 324 229 292T139 260Q96 260 65 278T17 325L65 369Q77 346 95 333T136 319Q165 319 177 336T190 381Q190 399 185 411T171 430T153 440T132 443Q124 443 117 443T104 442V501Q108 500 115 500T129 500Q155 500 170 513T185 556Q185 586 172 600T135 614Q114 614 97 602T67 570L21 609Q41 640 71 656T139 673Q190 673 223 647T256 565Q256 533 237 507T189 474Q218 469 240 442T262 377Z"  />
<glyph unicode="&#xBF;" horiz-adv-x="281" d="M14 107Q14 147 29 173T64 221T98 262T114 311Q114 321 110 331T98 349L171 379Q192 351 192 312Q192 279 180 257T152 215T124 177T111 129Q111 108 122 89T159 69Q188 69 208 95L254 40Q232 14 201 1T136 -12Q78 -12 46 22T14 107ZM73 496Q73 522 92 541T138 560Q164 560 183 541T202 496Q202 470 183 451T138 432Q112 432 93 451T73 496Z"  />
<glyph unicode="&#xC0;" horiz-adv-x="398" d="M197 728L94 872H179L258 728H197ZM288 0L265 136H133L110 0H3L139 667H259L395 0H288ZM199 548L145 228H253L199 548Z"  />
<glyph unicode="&#xC1;" horiz-adv-x="398" d="M203 728H142L221 872H306L203 728ZM288 0L265 136H133L110 0H3L139 667H259L395 0H288ZM199 548L145 228H253L199 548Z"  />
<glyph unicode="&#xC2;" horiz-adv-x="398" d="M255 728L198 826L145 728H91L155 872H242L308 728H255ZM288 0L265 136H133L110 0H3L139 667H259L395 0H288ZM199 548L145 228H253L199 548Z"  />
<glyph unicode="&#xC3;" horiz-adv-x="398" d="M242 726Q222 726 211 739T193 767T179 796T160 809Q146 809 137 791T128 732H78Q78 789 98 827T158 866Q178 866 189 853T207 825T221 796T240 783Q254 783 262 801T271 860H321Q321 803 302 765T242 726ZM288 0L265 136H133L110 0H3L139 667H259L395 0H288ZM199 548L145 228H253L199 548Z"  />
<glyph unicode="&#xC4;" horiz-adv-x="398" d="M330 778Q330 755 314 740T276 724Q253 724 238 739T222 778Q222 800 237 815T276 831Q298 831 314 816T330 778ZM176 778Q176 755 161 740T122 724Q100 724 84 739T68 778Q68 800 84 815T122 831Q145 831 160 816T176 778ZM288 0L265 136H133L110 0H3L139 667H259L395 0H288ZM199 548L145 228H253L199 548Z"  />
<glyph unicode="&#xC5;" horiz-adv-x="398" d="M200 693Q182 693 166 700T139 718T120 745T113 779Q113 815 138 840T200 866Q218 866 233 859T260 841T278 813T285 779Q285 761 279 746T261 719T234 700T200 693ZM200 737Q217 737 229 749T242 779Q242 797 230 809T200 822Q182 822 170 810T157 779Q157 762 169 750T200 737ZM288 0L265 136H133L110 0H3L139 667H259L395 0H288ZM199 548L145 228H253L199 548Z"  />
<glyph unicode="&#xC6;" horiz-adv-x="584" d="M275 0V136H156L115 0H9L230 667H548V575H380V386H541V294H380V92H548V0H275ZM275 548L181 228H275V548Z"  />
<glyph unicode="&#xC7;" horiz-adv-x="412" d="M225 -189Q200 -189 179 -180T143 -158L163 -117Q178 -130 192 -137T223 -144Q241 -144 254 -134T267 -106Q267 -92 260 -84T241 -76Q225 -76 214 -89L177 -68L199 -9Q156 -1 125 28T75 102T46 206T36 333Q36 407 47 470T81 579T142 652T230 678Q267 678 292 665T336 631T365 584T385 533L301 502Q290 540 275 562T230 585Q206 585 190 566T163 514T148 434T143 333Q143 279 147 233T162 153T189 100T230 81Q263 81 278 109T302 180L387 149Q381 123 371 96T344 47T304 9T248 -11L233 -50Q240 -45 246 -43T262 -40Q285 -40 301 -58T318 -107Q318 -144 292 -166T225 -189Z"  />
<glyph unicode="&#xC8;" horiz-adv-x="367" d="M194 728L91 872H176L255 728H194ZM57 0V667H330V575H161V386H323V294H161V92H330V0H57Z"  />
<glyph unicode="&#xC9;" horiz-adv-x="367" d="M200 728H139L218 872H303L200 728ZM57 0V667H330V575H161V386H323V294H161V92H330V0H57Z"  />
<glyph unicode="&#xCA;" horiz-adv-x="367" d="M250 728L193 826L140 728H86L150 872H237L303 728H250ZM57 0V667H330V575H161V386H323V294H161V92H330V0H57Z"  />
<glyph unicode="&#xCB;" horiz-adv-x="367" d="M326 778Q326 755 310 740T272 724Q249 724 234 739T218 778Q218 800 233 815T272 831Q294 831 310 816T326 778ZM172 778Q172 755 157 740T118 724Q96 724 80 739T64 778Q64 800 80 815T118 831Q141 831 156 816T172 778ZM57 0V667H330V575H161V386H323V294H161V92H330V0H57Z"  />
<glyph unicode="&#xCC;" horiz-adv-x="218" d="M106 728L3 872H88L167 728H106ZM57 0V667H161V0H57Z"  />
<glyph unicode="&#xCD;" horiz-adv-x="218" d="M114 728H53L132 872H217L114 728ZM57 0V667H161V0H57Z"  />
<glyph unicode="&#xCE;" horiz-adv-x="218" d="M165 728L108 826L55 728H1L65 872H152L218 728H165ZM57 0V667H161V0H57Z"  />
<glyph unicode="&#xCF;" horiz-adv-x="218" d="M242 777Q242 754 226 739T188 723Q165 723 150 738T134 777Q134 799 149 814T188 830Q210 830 226 815T242 777ZM88 777Q88 754 73 739T34 723Q12 723 -4 738T-20 777Q-20 799 -4 814T34 830Q57 830 72 815T88 777ZM57 0V667H161V0H57Z"  />
<glyph unicode="&#xD0;" horiz-adv-x="476" d="M78 0V291H18V367H78V667H227Q284 667 324 642T390 572T428 466T440 333Q440 261 428 200T391 94T325 25T228 0H78ZM182 291V92H227Q282 92 307 157T333 333Q333 447 308 511T227 575H182V367H256V291H182Z"  />
<glyph unicode="&#xD1;" horiz-adv-x="463" d="M272 726Q252 726 241 739T223 767T209 796T190 809Q176 809 167 791T158 732H108Q108 789 128 827T188 866Q208 866 219 853T237 825T251 796T270 783Q284 783 292 801T301 860H351Q351 803 332 765T272 726ZM308 0L161 426V0H57V667H161L302 252V667H407V0H308Z"  />
<glyph unicode="&#xD2;" horiz-adv-x="459" d="M226 728L123 872H208L287 728H226ZM229 -12Q177 -12 141 15T81 88T47 198T36 333Q36 406 46 469T80 578T140 651T229 678Q281 678 318 652T378 579T412 469T423 333Q423 261 412 198T378 89T318 15T229 -12ZM229 81Q253 81 270 101T297 155T311 235T316 333Q316 386 312 432T297 512T270 565T229 585Q205 585 189 566T162 512T148 432T143 333Q143 281 147 235T162 155T188 101T229 81Z"  />
<glyph unicode="&#xD3;" horiz-adv-x="459" d="M233 728H172L251 872H336L233 728ZM229 -12Q177 -12 141 15T81 88T47 198T36 333Q36 406 46 469T80 578T140 651T229 678Q281 678 318 652T378 579T412 469T423 333Q423 261 412 198T378 89T318 15T229 -12ZM229 81Q253 81 270 101T297 155T311 235T316 333Q316 386 312 432T297 512T270 565T229 585Q205 585 189 566T162 512T148 432T143 333Q143 281 147 235T162 155T188 101T229 81Z"  />
<glyph unicode="&#xD4;" horiz-adv-x="459" d="M286 728L229 826L176 728H122L186 872H273L339 728H286ZM229 -12Q177 -12 141 15T81 88T47 198T36 333Q36 406 46 469T80 578T140 651T229 678Q281 678 318 652T378 579T412 469T423 333Q423 261 412 198T378 89T318 15T229 -12ZM229 81Q253 81 270 101T297 155T311 235T316 333Q316 386 312 432T297 512T270 565T229 585Q205 585 189 566T162 512T148 432T143 333Q143 281 147 235T162 155T188 101T229 81Z"  />
<glyph unicode="&#xD5;" horiz-adv-x="459" d="M273 726Q253 726 242 739T224 767T210 796T191 809Q177 809 168 791T159 732H109Q109 789 129 827T189 866Q209 866 220 853T238 825T252 796T271 783Q285 783 293 801T302 860H352Q352 803 333 765T273 726ZM229 -12Q177 -12 141 15T81 88T47 198T36 333Q36 406 46 469T80 578T140 651T229 678Q281 678 318 652T378 579T412 469T423 333Q423 261 412 198T378 89T318 15T229 -12ZM229 81Q253 81 270 101T297 155T311 235T316 333Q316 386 312 432T297 512T270 565T229 585Q205 585 189 566T162 512T148 432T143 333Q143 281 147 235T162 155T188 101T229 81Z"  />
<glyph unicode="&#xD6;" horiz-adv-x="459" d="M361 778Q361 755 345 740T307 724Q284 724 269 739T253 778Q253 800 268 815T307 831Q329 831 345 816T361 778ZM207 778Q207 755 192 740T153 724Q131 724 115 739T99 778Q99 800 115 815T153 831Q176 831 191 816T207 778ZM229 -12Q177 -12 141 15T81 88T47 198T36 333Q36 406 46 469T80 578T140 651T229 678Q281 678 318 652T378 579T412 469T423 333Q423 261 412 198T378 89T318 15T229 -12ZM229 81Q253 81 270 101T297 155T311 235T316 333Q316 386 312 432T297 512T270 565T229 585Q205 585 189 566T162 512T148 432T143 333Q143 281 147 235T162 155T188 101T229 81Z"  />
<glyph unicode="&#xD7;" horiz-adv-x="381" d="M190 290L87 187L43 231L147 334L43 437L87 481L190 378L294 481L338 437L234 334L338 231L294 187L190 290Z"  />
<glyph unicode="&#xD8;" horiz-adv-x="459" d="M229 -12Q166 -12 124 28L111 0H47L84 82Q58 129 47 193T36 333Q36 406 46 469T80 578T140 651T229 678Q291 678 335 637L349 667H413L375 584Q400 536 411 472T423 333Q423 261 412 198T378 89T318 15T229 -12ZM143 333Q143 304 144 277T148 224L288 534Q278 558 264 571T229 585Q205 585 189 566T162 512T148 432T143 333ZM229 81Q253 81 270 101T297 155T311 235T316 333Q316 392 310 440L170 131Q192 81 229 81Z"  />
<glyph unicode="&#xD9;" horiz-adv-x="464" d="M229 728L126 872H211L290 728H229ZM232 -12Q197 -12 165 -1T109 35T71 96T57 184V667H161V179Q161 124 180 102T232 80Q264 80 283 102T303 179V667H407V184Q407 133 393 96T355 35T299 0T232 -12Z"  />
<glyph unicode="&#xDA;" horiz-adv-x="464" d="M236 728H175L254 872H339L236 728ZM232 -12Q197 -12 165 -1T109 35T71 96T57 184V667H161V179Q161 124 180 102T232 80Q264 80 283 102T303 179V667H407V184Q407 133 393 96T355 35T299 0T232 -12Z"  />
<glyph unicode="&#xDB;" horiz-adv-x="464" d="M288 728L231 826L178 728H124L188 872H275L341 728H288ZM232 -12Q197 -12 165 -1T109 35T71 96T57 184V667H161V179Q161 124 180 102T232 80Q264 80 283 102T303 179V667H407V184Q407 133 393 96T355 35T299 0T232 -12Z"  />
<glyph unicode="&#xDC;" horiz-adv-x="464" d="M363 778Q363 755 347 740T309 724Q286 724 271 739T255 778Q255 800 270 815T309 831Q331 831 347 816T363 778ZM209 778Q209 755 194 740T155 724Q133 724 117 739T101 778Q101 800 117 815T155 831Q178 831 193 816T209 778ZM232 -12Q197 -12 165 -1T109 35T71 96T57 184V667H161V179Q161 124 180 102T232 80Q264 80 283 102T303 179V667H407V184Q407 133 393 96T355 35T299 0T232 -12Z"  />
<glyph unicode="&#xDD;" horiz-adv-x="405" d="M209 728H148L227 872H312L209 728ZM151 0V279L-3 667H109L203 382L298 667H408L255 279V0H151Z"  />
<glyph unicode="&#xDE;" horiz-adv-x="418" d="M57 0V667H161V552H218Q264 552 297 535T351 490T383 424T394 345Q394 304 384 267T352 202T297 157T218 140H161V0H57ZM208 232Q247 232 267 263T287 345Q287 396 267 428T208 460H161V232H208Z"  />
<glyph unicode="&#xDF;" horiz-adv-x="670" d="M160 -12Q115 -12 82 1T16 45L58 120Q77 97 101 85T152 72Q177 72 194 90T212 140Q212 165 199 184T167 221T124 255T82 295T49 347T36 417Q36 448 46 474T75 520T122 551T184 562Q222 562 251 552T306 518L268 443Q250 462 231 470T190 478Q167 478 152 462T136 417Q136 394 149 377T182 343T224 308T267 267T300 214T313 141Q313 108 302 80T271 31T223 0T160 -12ZM495 -12Q450 -12 417 1T351 45L393 120Q412 97 436 85T487 72Q512 72 529 90T547 140Q547 165 534 184T502 221T459 255T417 295T384 347T371 417Q371 448 381 474T410 520T457 551T519 562Q557 562 586 552T641 518L603 443Q585 462 566 470T525 478Q502 478 487 462T471 417Q471 394 484 377T517 343T559 308T602 267T635 214T648 141Q648 108 637 80T606 31T558 0T495 -12Z"  />
<glyph unicode="&#xE0;" horiz-adv-x="347" d="M229 550L344 0H244L226 110H121L103 0H2L118 550H229ZM173 437L132 195H214L173 437ZM171 606L68 750H153L232 606H171Z"  />
<glyph unicode="&#xE1;" horiz-adv-x="347" d="M229 550L344 0H244L226 110H121L103 0H2L118 550H229ZM173 437L132 195H214L173 437ZM177 606H116L195 750H280L177 606Z"  />
<glyph unicode="&#xE2;" horiz-adv-x="347" d="M229 550L344 0H244L226 110H121L103 0H2L118 550H229ZM173 437L132 195H214L173 437ZM229 606L172 704L119 606H65L129 750H216L282 606H229Z"  />
<glyph unicode="&#xE3;" horiz-adv-x="347" d="M229 550L344 0H244L226 110H121L103 0H2L118 550H229ZM173 437L132 195H214L173 437ZM216 604Q196 604 185 617T167 645T153 674T134 687Q120 687 111 669T102 610H52Q52 667 72 705T132 744Q152 744 163 731T181 703T195 674T214 661Q228 661 236 679T245 738H295Q295 681 276 643T216 604Z"  />
<glyph unicode="&#xE4;" horiz-adv-x="347" d="M229 550L344 0H244L226 110H121L103 0H2L118 550H229ZM173 437L132 195H214L173 437ZM304 665Q304 642 288 627T250 611Q227 611 212 626T196 665Q196 687 211 702T250 718Q272 718 288 703T304 665ZM150 665Q150 642 135 627T96 611Q74 611 58 626T42 665Q42 687 58 702T96 718Q119 718 134 703T150 665Z"  />
<glyph unicode="&#xE5;" horiz-adv-x="347" d="M229 550L344 0H244L226 110H121L103 0H2L118 550H229ZM173 437L132 195H214L173 437ZM174 602Q156 602 140 609T113 627T94 654T87 688Q87 724 112 749T174 775Q192 775 207 768T234 750T252 722T259 688Q259 670 253 655T235 628T208 609T174 602ZM174 646Q191 646 203 658T216 688Q216 706 204 718T174 731Q156 731 144 719T131 688Q131 671 143 659T174 646Z"  />
<glyph unicode="&#xE6;" horiz-adv-x="502" d="M227 0V110H131L98 0H-3L184 550H469V465H325V324H463V238H325V85H469V0H227ZM227 438L153 195H227V438Z"  />
<glyph unicode="&#xE7;" horiz-adv-x="371" d="M198 -193Q173 -193 152 -184T116 -162L136 -121Q151 -134 165 -141T196 -148Q214 -148 227 -138T240 -110Q240 -96 233 -88T214 -80Q198 -80 187 -93L150 -72L173 -8Q136 0 110 24T66 86T41 172T33 275Q33 336 43 388T74 479T128 540T208 562Q240 562 263 552T302 523T329 482T348 435L269 409Q258 441 245 458T208 476Q187 476 173 461T149 418T137 355T133 275Q133 233 136 196T149 132T172 90T208 74Q232 74 246 93T269 145L348 120Q341 97 331 75T307 34T272 4T223 -11L206 -54Q213 -49 219 -47T235 -44Q258 -44 274 -62T291 -111Q291 -148 265 -170T198 -193Z"  />
<glyph unicode="&#xE8;" horiz-adv-x="326" d="M50 0V550H293V465H148V324H287V238H148V85H293V0H50ZM170 606L67 750H152L231 606H170Z"  />
<glyph unicode="&#xE9;" horiz-adv-x="326" d="M50 0V550H293V465H148V324H287V238H148V85H293V0H50ZM176 606H115L194 750H279L176 606Z"  />
<glyph unicode="&#xEA;" horiz-adv-x="326" d="M50 0V550H293V465H148V324H287V238H148V85H293V0H50ZM226 606L169 704L116 606H62L126 750H213L279 606H226Z"  />
<glyph unicode="&#xEB;" horiz-adv-x="326" d="M50 0V550H293V465H148V324H287V238H148V85H293V0H50ZM304 665Q304 642 288 627T250 611Q227 611 212 626T196 665Q196 687 211 702T250 718Q272 718 288 703T304 665ZM150 665Q150 642 135 627T96 611Q74 611 58 626T42 665Q42 687 58 702T96 718Q119 718 134 703T150 665Z"  />
<glyph unicode="&#xEC;" horiz-adv-x="195" d="M50 0V550H148V0H50ZM95 606L-8 750H77L156 606H95Z"  />
<glyph unicode="&#xED;" horiz-adv-x="195" d="M50 0V550H148V0H50ZM101 606H40L119 750H204L101 606Z"  />
<glyph unicode="&#xEE;" horiz-adv-x="195" d="M50 0V550H148V0H50ZM152 606L95 704L42 606H-12L52 750H139L205 606H152Z"  />
<glyph unicode="&#xEF;" horiz-adv-x="195" d="M50 0V550H148V0H50ZM230 665Q230 642 214 627T176 611Q153 611 138 626T122 665Q122 687 137 702T176 718Q198 718 214 703T230 665ZM76 665Q76 642 61 627T22 611Q0 611 -16 626T-32 665Q-32 687 -16 702T22 718Q45 718 60 703T76 665Z"  />
<glyph unicode="&#xF0;" horiz-adv-x="433" d="M70 0V244H18V308H70V550H206Q255 550 291 529T350 471T385 384T396 274Q396 215 385 165T351 78T292 21T207 0H70ZM168 244V85H206Q252 85 274 136T297 274Q297 364 274 414T206 465H168V308H225V244H168Z"  />
<glyph unicode="&#xF1;" horiz-adv-x="409" d="M264 0L148 350V0H50V550H151L262 212V550H359V0H264ZM245 604Q225 604 214 617T196 645T182 674T163 687Q149 687 140 669T131 610H81Q81 667 101 705T161 744Q181 744 192 731T210 703T224 674T243 661Q257 661 265 679T274 738H324Q324 681 305 643T245 604Z"  />
<glyph unicode="&#xF2;" horiz-adv-x="416" d="M207 -12Q160 -12 127 10T73 71T43 162T33 275Q33 335 42 387T73 478T127 539T207 562Q254 562 287 540T341 479T372 388T382 275Q382 215 372 163T341 72T287 11T207 -12ZM207 74Q229 74 243 90T266 133T278 197T282 275Q282 316 279 352T267 416T244 460T207 476Q185 476 171 460T149 417T137 353T133 275Q133 234 136 198T148 134T171 90T207 74ZM205 606L102 750H187L266 606H205Z"  />
<glyph unicode="&#xF3;" horiz-adv-x="416" d="M207 -12Q160 -12 127 10T73 71T43 162T33 275Q33 335 42 387T73 478T127 539T207 562Q254 562 287 540T341 479T372 388T382 275Q382 215 372 163T341 72T287 11T207 -12ZM207 74Q229 74 243 90T266 133T278 197T282 275Q282 316 279 352T267 416T244 460T207 476Q185 476 171 460T149 417T137 353T133 275Q133 234 136 198T148 134T171 90T207 74ZM212 606H151L230 750H315L212 606Z"  />
<glyph unicode="&#xF4;" horiz-adv-x="416" d="M207 -12Q160 -12 127 10T73 71T43 162T33 275Q33 335 42 387T73 478T127 539T207 562Q254 562 287 540T341 479T372 388T382 275Q382 215 372 163T341 72T287 11T207 -12ZM207 74Q229 74 243 90T266 133T278 197T282 275Q282 316 279 352T267 416T244 460T207 476Q185 476 171 460T149 417T137 353T133 275Q133 234 136 198T148 134T171 90T207 74ZM263 606L206 704L153 606H99L163 750H250L316 606H263Z"  />
<glyph unicode="&#xF5;" horiz-adv-x="416" d="M207 -12Q160 -12 127 10T73 71T43 162T33 275Q33 335 42 387T73 478T127 539T207 562Q254 562 287 540T341 479T372 388T382 275Q382 215 372 163T341 72T287 11T207 -12ZM207 74Q229 74 243 90T266 133T278 197T282 275Q282 316 279 352T267 416T244 460T207 476Q185 476 171 460T149 417T137 353T133 275Q133 234 136 198T148 134T171 90T207 74ZM249 604Q229 604 218 617T200 645T186 674T167 687Q153 687 144 669T135 610H85Q85 667 105 705T165 744Q185 744 196 731T214 703T228 674T247 661Q261 661 269 679T278 738H328Q328 681 309 643T249 604Z"  />
<glyph unicode="&#xF6;" horiz-adv-x="416" d="M207 -12Q160 -12 127 10T73 71T43 162T33 275Q33 335 42 387T73 478T127 539T207 562Q254 562 287 540T341 479T372 388T382 275Q382 215 372 163T341 72T287 11T207 -12ZM207 74Q229 74 243 90T266 133T278 197T282 275Q282 316 279 352T267 416T244 460T207 476Q185 476 171 460T149 417T137 353T133 275Q133 234 136 198T148 134T171 90T207 74ZM338 665Q338 642 322 627T284 611Q261 611 246 626T230 665Q230 687 245 702T284 718Q306 718 322 703T338 665ZM184 665Q184 642 169 627T130 611Q108 611 92 626T76 665Q76 687 92 702T130 718Q153 718 168 703T184 665Z"  />
<glyph unicode="&#xF7;" horiz-adv-x="374" d="M239 480Q239 459 224 444T188 428Q167 428 152 443T137 480Q137 501 152 516T188 531Q209 531 224 516T239 480ZM29 306V368H345V306H29ZM239 191Q239 170 224 155T188 140Q167 140 152 155T137 191Q137 213 152 228T188 243Q209 243 224 228T239 191Z"  />
<glyph unicode="&#xF8;" horiz-adv-x="416" d="M207 -12Q148 -12 108 25L96 0H40L75 68Q53 107 43 160T33 275Q33 335 42 387T73 478T127 539T207 562Q239 562 264 552T309 522L323 550H378L341 478Q362 439 372 387T382 275Q382 215 372 163T341 72T287 11T207 -12ZM133 275Q133 252 134 230T137 188L261 430Q244 476 207 476Q185 476 171 460T149 417T137 353T133 275ZM207 74Q229 74 243 90T266 133T278 197T282 275Q282 296 281 316T278 356L155 115Q172 74 207 74Z"  />
<glyph unicode="&#xF9;" horiz-adv-x="414" d="M207 -12Q133 -12 92 38T50 200V550H148V163Q148 74 207 74Q266 74 266 163V550H364V200Q364 89 323 39T207 -12ZM204 606L101 750H186L265 606H204Z"  />
<glyph unicode="&#xFA;" horiz-adv-x="414" d="M207 -12Q133 -12 92 38T50 200V550H148V163Q148 74 207 74Q266 74 266 163V550H364V200Q364 89 323 39T207 -12ZM211 606H150L229 750H314L211 606Z"  />
<glyph unicode="&#xFB;" horiz-adv-x="414" d="M207 -12Q133 -12 92 38T50 200V550H148V163Q148 74 207 74Q266 74 266 163V550H364V200Q364 89 323 39T207 -12ZM263 606L206 704L153 606H99L163 750H250L316 606H263Z"  />
<glyph unicode="&#xFC;" horiz-adv-x="414" d="M207 -12Q133 -12 92 38T50 200V550H148V163Q148 74 207 74Q266 74 266 163V550H364V200Q364 89 323 39T207 -12ZM337 665Q337 642 321 627T283 611Q260 611 245 626T229 665Q229 687 244 702T283 718Q305 718 321 703T337 665ZM183 665Q183 642 168 627T129 611Q107 611 91 626T75 665Q75 687 91 702T129 718Q152 718 167 703T183 665Z"  />
<glyph unicode="&#xFD;" horiz-adv-x="358" d="M130 0V230L-2 550H101L179 328L257 550H360L228 230V0H130ZM182 606H121L200 750H285L182 606Z"  />
<glyph unicode="&#xFE;" horiz-adv-x="363" d="M50 0V550H148V462H192Q231 462 259 448T307 411T335 356T344 289Q344 254 335 223T307 168T260 130T192 116H148V0H50ZM181 201Q213 201 228 226T244 288Q244 326 229 351T181 377H148V201H181Z"  />
<glyph unicode="&#xFF;" horiz-adv-x="358" d="M130 0V230L-2 550H101L179 328L257 550H360L228 230V0H130ZM309 665Q309 642 293 627T255 611Q232 611 217 626T201 665Q201 687 216 702T255 718Q277 718 293 703T309 665ZM155 665Q155 642 140 627T101 611Q79 611 63 626T47 665Q47 687 63 702T101 718Q124 718 139 703T155 665Z"  />
<glyph unicode="&#x152;" horiz-adv-x="616" d="M307 0V57Q289 17 261 3T210 -12Q163 -12 130 15T76 88T46 198T36 333Q36 406 45 468T76 577T130 650T210 677Q233 677 261 663T307 610V667H580V575H412V386H573V294H412V92H580V0H307ZM307 481Q285 584 230 584Q205 584 188 565T161 512T147 432T143 333Q143 280 147 235T161 155T188 101T230 81Q256 81 276 108T307 185V481Z"  />
<glyph unicode="&#x153;" horiz-adv-x="549" d="M273 0V47Q257 12 233 0T186 -12Q145 -12 116 10T69 71T42 162T33 275Q33 335 41 387T68 478T116 539T186 562Q209 562 233 550T273 503V550H516V464H371V324H510V238H371V86H516V0H273ZM273 388Q265 430 250 453T208 476Q185 476 171 460T148 417T137 353T133 275Q133 234 136 198T148 134T170 90T208 74Q234 74 249 97T273 163V388Z"  />
<glyph unicode="&#x160;" horiz-adv-x="369" d="M164 728L97 872H151L207 774L261 872H314L251 728H164ZM175 -12Q75 -12 16 52L63 134Q83 108 111 95T169 81Q201 81 222 105T244 167Q244 200 229 224T190 269T139 310T89 356T50 417T34 501Q34 538 46 570T80 626T134 664T206 678Q245 678 279 665T340 627L298 547Q261 585 209 585Q180 585 160 564T140 507Q140 478 155 456T194 414T245 372T295 323T334 259T350 173Q350 133 338 99T302 41T247 2T175 -12Z"  />
<glyph unicode="&#x161;" horiz-adv-x="335" d="M160 -12Q115 -12 82 1T16 45L58 120Q77 97 101 85T152 72Q177 72 194 90T212 140Q212 165 199 184T167 221T124 255T82 295T49 347T36 417Q36 448 46 474T75 520T122 551T184 562Q222 562 251 552T306 518L268 443Q250 462 231 470T190 478Q167 478 152 462T136 417Q136 394 149 377T182 343T224 308T267 267T300 214T313 141Q313 108 302 80T271 31T223 0T160 -12ZM132 606L65 750H119L175 652L229 750H282L219 606H132Z"  />
<glyph unicode="&#x178;" horiz-adv-x="405" d="M336 778Q336 755 320 740T282 724Q259 724 244 739T228 778Q228 800 243 815T282 831Q304 831 320 816T336 778ZM182 778Q182 755 167 740T128 724Q106 724 90 739T74 778Q74 800 90 815T128 831Q151 831 166 816T182 778ZM151 0V279L-3 667H109L203 382L298 667H408L255 279V0H151Z"  />
<glyph unicode="&#x17D;" horiz-adv-x="360" d="M139 728L72 872H126L182 774L236 872H289L226 728H139ZM31 0V89L206 575H31V667H323V582L145 92H330V0H31Z"  />
<glyph unicode="&#x17E;" horiz-adv-x="309" d="M25 0V75L168 465H25V550H278V477L135 85H284V0H25ZM110 606L43 750H97L153 652L207 750H260L197 606H110Z"  />
<glyph unicode="&#x192;" horiz-adv-x="348" d="M26 -119L98 209H61V279H114L147 426Q165 502 201 531T285 561Q308 561 327 554T358 534L318 457Q310 469 294 469Q278 469 268 456T250 411L221 279H285V209H205L132 -119H26Z"  />
<glyph unicode="&#x2C6;" horiz-adv-x="217" d="M164 556L107 654L54 556H0L64 700H151L217 556H164Z"  />
<glyph unicode="&#x2DC;" horiz-adv-x="243" d="M164 554Q144 554 133 567T115 595T101 624T82 637Q68 637 59 619T50 560H0Q0 617 20 655T80 694Q100 694 111 681T129 653T143 624T162 611Q176 611 184 629T193 688H243Q243 631 224 593T164 554Z"  />
<glyph unicode="&#x3BC;" horiz-adv-x="402" d="M50 -184V483H144V126Q144 70 185 70Q209 70 228 91T258 139V483H352V0H258V63Q243 33 213 11T147 -12H144V-184H50Z"  />
<glyph unicode="&#x2013;" horiz-adv-x="460" d="M30 201V283H430V201H30Z"  />
<glyph unicode="&#x2014;" horiz-adv-x="640" d="M30 201V283H610V201H30Z"  />
<glyph unicode="&#x2018;" horiz-adv-x="241" d="M51 515Q51 565 76 607T140 677L184 642Q160 627 140 601T114 548Q116 549 120 550T130 551Q153 551 169 535T185 492Q185 466 167 448T122 429Q93 429 72 451T51 515Z"  />
<glyph unicode="&#x2019;" horiz-adv-x="241" d="M189 591Q189 541 164 499T100 429L57 464Q81 479 101 505T126 558Q124 557 120 556T111 555Q87 555 71 571T55 614Q55 640 73 658T118 677Q147 677 168 655T189 591Z"  />
<glyph unicode="&#x201A;" horiz-adv-x="241" d="M189 32Q189 -18 164 -60T100 -130L57 -95Q81 -80 101 -54T126 -1Q124 -2 120 -2T111 -3Q87 -3 71 13T55 55Q55 81 73 99T118 118Q147 118 168 96T189 32Z"  />
<glyph unicode="&#x201C;" horiz-adv-x="416" d="M52 515Q52 565 77 607T140 677L184 642Q160 627 140 601T115 548Q117 549 121 550T130 551Q153 551 169 535T185 492Q185 466 167 448T123 429Q94 429 73 451T52 515ZM227 515Q227 565 252 607T316 677L360 642Q336 627 316 601T291 548Q293 549 297 550T306 551Q329 551 345 535T361 492Q361 466 343 448T299 429Q270 429 249 451T227 515Z"  />
<glyph unicode="&#x201D;" horiz-adv-x="416" d="M365 591Q365 541 340 499T276 429L232 464Q256 479 276 505T301 558Q299 557 295 556T286 555Q263 555 247 571T231 614Q231 640 249 658T294 677Q323 677 344 655T365 591ZM189 591Q189 541 164 499T100 429L57 464Q81 479 101 505T126 558Q124 557 120 556T111 555Q87 555 71 571T55 614Q55 640 73 658T118 677Q147 677 168 655T189 591Z"  />
<glyph unicode="&#x201E;" horiz-adv-x="416" d="M189 32Q189 -18 164 -60T100 -130L57 -95Q81 -80 101 -54T126 -1Q124 -2 120 -2T111 -3Q87 -3 71 13T55 55Q55 81 73 99T118 118Q147 118 168 96T189 32ZM365 32Q365 -18 340 -60T276 -130L232 -95Q256 -80 276 -54T301 -1Q297 -3 286 -3Q263 -3 247 13T231 55Q231 81 249 99T294 118Q323 118 344 96T365 32Z"  />
<glyph unicode="&#x2020;" horiz-adv-x="268" d="M157 532L161 327H106L111 532L22 528V578L111 575L106 677H161L157 575L246 578V528L157 532Z"  />
<glyph unicode="&#x2021;" horiz-adv-x="268" d="M246 528L157 532V326L246 330V280L157 283L161 180H106L110 283L22 280V330L110 326V532L22 528V578L110 575L106 677H161L157 575L246 578V528Z"  />
<glyph unicode="&#x2022;" horiz-adv-x="358" d="M292 242Q292 219 283 199T259 164T224 140T180 131Q157 131 137 140T101 164T77 199T68 242Q68 265 77 285T101 321T136 345T180 354Q203 354 223 345T259 321T283 286T292 242Z"  />
<glyph unicode="&#x2026;" horiz-adv-x="717" d="M184 54Q184 28 165 9T119 -11Q93 -11 74 8T55 54Q55 80 74 99T119 118Q146 118 165 99T184 54ZM423 54Q423 28 404 9T358 -11Q332 -11 313 8T294 54Q294 80 313 99T358 118Q385 118 404 99T423 54ZM662 54Q662 28 643 9T597 -11Q571 -11 552 8T533 54Q533 80 552 99T597 118Q624 118 643 99T662 54Z"  />
<glyph unicode="&#x2030;" horiz-adv-x="705" d="M230 424Q230 366 202 327T124 288Q75 288 47 327T18 424Q18 453 25 478T46 522T80 551T124 562Q148 562 168 552T201 522T222 478T230 424ZM454 126Q454 97 447 72T425 29T392 0T348 -11Q324 -11 304 -1T271 28T250 72T242 126Q242 155 249 180T270 224T304 253T348 264Q372 264 391 254T425 225T446 181T454 126ZM140 0H94L341 549H387L140 0ZM169 424Q169 462 158 486T124 510Q102 510 90 486T78 424Q78 387 90 364T124 340Q146 340 157 363T169 424ZM394 126Q394 164 382 187T348 211Q326 211 314 188T301 126Q301 90 313 66T348 41Q369 41 381 65T394 126ZM687 126Q687 97 680 72T658 29T625 0T581 -11Q557 -11 537 -1T504 28T483 72T475 126Q475 155 482 180T503 224T537 253T581 264Q605 264 624 254T658 225T679 181T687 126ZM627 126Q627 164 615 187T581 211Q559 211 547 188T534 126Q534 90 546 66T581 41Q602 41 614 65T627 126Z"  />
<glyph unicode="&#x2039;" horiz-adv-x="225" d="M120 63L30 243L120 420H195L105 243L195 63H120Z"  />
<glyph unicode="&#x203A;" horiz-adv-x="225" d="M105 63H30L120 243L30 420H105L195 243L105 63Z"  />
<glyph unicode="&#x20AC;" horiz-adv-x="383" d="M145 308V275V241H234V191H149Q155 138 171 106T220 74Q244 74 258 93T281 145L360 120Q352 95 342 72T315 30T276 0T220 -12Q182 -12 153 3T103 45T69 109T50 191H15V241H46Q45 249 45 257T45 275Q45 283 45 291T46 308H15V358H50Q56 403 68 440T102 505T152 547T220 562Q252 562 275 552T314 523T341 482T360 435L281 409Q270 441 257 458T220 476Q188 476 172 444T149 358H234V308H145Z"  />
<glyph unicode="&#x2122;" horiz-adv-x="374" d="M311 447V629L256 447H248L193 629V447H165V667H208L252 510L296 667H339V447H311ZM87 641V447H59V641H17V667H129V641H87Z"  />


</font>
</defs>
</svg>
